<svg width="24" height="24" viewBox="0 0 24 24" fill="none" xmlns="http://www.w3.org/2000/svg">
<g clip-path="url(#clip0_224_7973)">
<path d="M12 6.00024C11.2089 6.00024 10.4355 6.23484 9.77772 6.67437C9.11993 7.11389 8.60723 7.73861 8.30448 8.46951C8.00173 9.20041 7.92252 10.0047 8.07686 10.7806C8.2312 11.5565 8.61216 12.2693 9.17157 12.8287C9.73098 13.3881 10.4437 13.769 11.2196 13.9234C11.9956 14.0777 12.7998 13.9985 13.5307 13.6958C14.2616 13.393 14.8864 12.8803 15.3259 12.2225C15.7654 11.5647 16 10.7914 16 10.0002C16 8.93938 15.5786 7.92196 14.8284 7.17182C14.0783 6.42167 13.0609 6.00024 12 6.00024ZM12 12.0002C11.6044 12.0002 11.2178 11.8829 10.8889 11.6632C10.56 11.4434 10.3036 11.1311 10.1522 10.7656C10.0009 10.4002 9.96126 9.99803 10.0384 9.61006C10.1156 9.2221 10.3061 8.86574 10.5858 8.58603C10.8655 8.30633 11.2219 8.11584 11.6098 8.03867C11.9978 7.9615 12.3999 8.00111 12.7654 8.15248C13.1308 8.30386 13.4432 8.56021 13.6629 8.8891C13.8827 9.218 14 9.60468 14 10.0002C14 10.5307 13.7893 11.0394 13.4142 11.4145C13.0391 11.7895 12.5304 12.0002 12 12.0002Z" fill="#374957"/>
<path d="M12.0003 24.0005C11.1583 24.0048 10.3274 23.8074 9.57738 23.4246C8.82733 23.0418 8.17991 22.4849 7.68931 21.8005C3.87831 16.5435 1.94531 12.5915 1.94531 10.0535C1.94531 7.38678 3.00468 4.82926 4.89035 2.94358C6.77603 1.0579 9.33356 -0.00146484 12.0003 -0.00146484C14.6671 -0.00146484 17.2246 1.0579 19.1103 2.94358C20.9959 4.82926 22.0553 7.38678 22.0553 10.0535C22.0553 12.5915 20.1223 16.5435 16.3113 21.8005C15.8207 22.4849 15.1733 23.0418 14.4232 23.4246C13.6732 23.8074 12.8424 24.0048 12.0003 24.0005ZM12.0003 2.18154C9.91273 2.18392 7.91133 3.01426 6.43518 4.49041C4.95904 5.96655 4.12869 7.96795 4.12631 10.0555C4.12631 12.0655 6.01931 15.7825 9.45531 20.5215C9.74701 20.9233 10.1297 21.2503 10.572 21.4758C11.0144 21.7013 11.5038 21.8188 12.0003 21.8188C12.4968 21.8188 12.9863 21.7013 13.4286 21.4758C13.8709 21.2503 14.2536 20.9233 14.5453 20.5215C17.9813 15.7825 19.8743 12.0655 19.8743 10.0555C19.8719 7.96795 19.0416 5.96655 17.5654 4.49041C16.0893 3.01426 14.0879 2.18392 12.0003 2.18154Z" fill="#374957"/>
</g>
<defs>
<clipPath id="clip0_224_7973">
<rect width="24" height="24" fill="white" transform="translate(0 0.000244141)"/>
</clipPath>
</defs>
</svg>
