<svg width="24" height="24" viewBox="0 0 24 24" fill="none" xmlns="http://www.w3.org/2000/svg">
<g clip-path="url(#clip0_224_9044)">
<path d="M12 0C9.62663 0 7.30655 0.703788 5.33316 2.02236C3.35977 3.34094 1.8217 5.21509 0.913451 7.4078C0.00519943 9.60051 -0.232441 12.0133 0.230582 14.3411C0.693605 16.6689 1.83649 18.8071 3.51472 20.4853C5.19295 22.1635 7.33115 23.3064 9.65892 23.7694C11.9867 24.2324 14.3995 23.9948 16.5922 23.0866C18.7849 22.1783 20.6591 20.6402 21.9776 18.6668C23.2962 16.6935 24 14.3734 24 12C23.9966 8.81846 22.7312 5.76821 20.4815 3.51852C18.2318 1.26883 15.1815 0.00344108 12 0V0ZM12 22C10.0222 22 8.08879 21.4135 6.4443 20.3147C4.79981 19.2159 3.51809 17.6541 2.76121 15.8268C2.00433 13.9996 1.8063 11.9889 2.19215 10.0491C2.578 8.10929 3.53041 6.32746 4.92894 4.92893C6.32746 3.53041 8.10929 2.578 10.0491 2.19215C11.9889 1.8063 13.9996 2.00433 15.8268 2.7612C17.6541 3.51808 19.2159 4.79981 20.3147 6.4443C21.4135 8.08879 22 10.0222 22 12C21.9971 14.6513 20.9426 17.1931 19.0679 19.0679C17.1931 20.9426 14.6513 21.9971 12 22Z" fill="#374957"/>
<path d="M12.717 5.06271C12.1403 4.95764 11.5476 4.9806 10.9808 5.12995C10.414 5.27931 9.88691 5.55141 9.43689 5.92701C8.98688 6.30262 8.62491 6.77253 8.37661 7.30351C8.12831 7.83449 7.99974 8.41354 8 8.99971C8 9.26493 8.10536 9.51928 8.29289 9.70682C8.48043 9.89435 8.73478 9.99971 9 9.99971C9.26521 9.99971 9.51957 9.89435 9.7071 9.70682C9.89464 9.51928 10 9.26493 10 8.99971C9.99975 8.70549 10.0644 8.41483 10.1894 8.14847C10.3144 7.88211 10.4966 7.6466 10.723 7.45874C10.9495 7.27088 11.2146 7.1353 11.4994 7.06166C11.7843 6.98802 12.0819 6.97813 12.371 7.03271C12.766 7.10939 13.1292 7.3021 13.4142 7.5862C13.6992 7.8703 13.8931 8.23291 13.971 8.62771C14.0497 9.04211 13.9953 9.47079 13.8157 9.85245C13.6361 10.2341 13.3405 10.5492 12.971 10.7527C12.3592 11.1072 11.8536 11.6192 11.5069 12.2355C11.1603 12.8518 10.9852 13.5498 11 14.2567V14.9997C11 15.2649 11.1054 15.5193 11.2929 15.7068C11.4804 15.8944 11.7348 15.9997 12 15.9997C12.2652 15.9997 12.5196 15.8944 12.7071 15.7068C12.8946 15.5193 13 15.2649 13 14.9997V14.2567C12.9874 13.9087 13.0668 13.5636 13.2301 13.256C13.3933 12.9484 13.6347 12.6893 13.93 12.5047C14.6545 12.1068 15.2379 11.4942 15.6001 10.7511C15.9622 10.0081 16.0852 9.17107 15.9523 8.35524C15.8193 7.5394 15.4368 6.7848 14.8575 6.19521C14.2781 5.60561 13.5304 5.20997 12.717 5.06271Z" fill="#374957"/>
<path d="M13 17.9996C13 17.4474 12.5523 16.9996 12 16.9996C11.4477 16.9996 11 17.4474 11 17.9996C11 18.5519 11.4477 18.9996 12 18.9996C12.5523 18.9996 13 18.5519 13 17.9996Z" fill="#374957"/>
</g>
<defs>
<clipPath id="clip0_224_9044">
<rect width="24" height="24" fill="white"/>
</clipPath>
</defs>
</svg>
