<svg width="24" height="24" viewBox="0 0 24 24" fill="none" xmlns="http://www.w3.org/2000/svg">
<g clip-path="url(#clip0_224_9050)">
<path d="M7 0.000244141H4C2.93913 0.000244141 1.92172 0.421672 1.17157 1.17182C0.421427 1.92196 0 2.93938 0 4.00024L0 7.00024C0 8.06111 0.421427 9.07853 1.17157 9.82867C1.92172 10.5788 2.93913 11.0002 4 11.0002H7C8.06087 11.0002 9.07828 10.5788 9.82843 9.82867C10.5786 9.07853 11 8.06111 11 7.00024V4.00024C11 2.93938 10.5786 1.92196 9.82843 1.17182C9.07828 0.421672 8.06087 0.000244141 7 0.000244141V0.000244141ZM9 7.00024C9 7.53068 8.78929 8.03938 8.41421 8.41446C8.03914 8.78953 7.53043 9.00024 7 9.00024H4C3.46957 9.00024 2.96086 8.78953 2.58579 8.41446C2.21071 8.03938 2 7.53068 2 7.00024V4.00024C2 3.46981 2.21071 2.9611 2.58579 2.58603C2.96086 2.21096 3.46957 2.00024 4 2.00024H7C7.53043 2.00024 8.03914 2.21096 8.41421 2.58603C8.78929 2.9611 9 3.46981 9 4.00024V7.00024Z" fill="#374957"/>
<path d="M20 0.000244141H17C15.9391 0.000244141 14.9217 0.421672 14.1716 1.17182C13.4214 1.92196 13 2.93938 13 4.00025V7.00025C13 8.06112 13.4214 9.07853 14.1716 9.82868C14.9217 10.5788 15.9391 11.0003 17 11.0003H20C21.0609 11.0003 22.0783 10.5788 22.8284 9.82868C23.5786 9.07853 24 8.06112 24 7.00025V4.00025C24 2.93938 23.5786 1.92196 22.8284 1.17182C22.0783 0.421672 21.0609 0.000244141 20 0.000244141V0.000244141ZM22 7.00025C22 7.53068 21.7893 8.03939 21.4142 8.41446C21.0391 8.78954 20.5304 9.00025 20 9.00025H17C16.4696 9.00025 15.9609 8.78954 15.5858 8.41446C15.2107 8.03939 15 7.53068 15 7.00025V4.00025C15 3.46981 15.2107 2.96111 15.5858 2.58603C15.9609 2.21096 16.4696 2.00025 17 2.00025H20C20.5304 2.00025 21.0391 2.21096 21.4142 2.58603C21.7893 2.96111 22 3.46981 22 4.00025V7.00025Z" fill="#374957"/>
<path d="M7 13.0002H4C2.93913 13.0002 1.92172 13.4217 1.17157 14.1718C0.421427 14.922 0 15.9394 0 17.0002L0 20.0003C0 21.0611 0.421427 22.0785 1.17157 22.8287C1.92172 23.5788 2.93913 24.0003 4 24.0003H7C8.06087 24.0003 9.07828 23.5788 9.82843 22.8287C10.5786 22.0785 11 21.0611 11 20.0003V17.0002C11 15.9394 10.5786 14.922 9.82843 14.1718C9.07828 13.4217 8.06087 13.0002 7 13.0002V13.0002ZM9 20.0003C9 20.5307 8.78929 21.0394 8.41421 21.4145C8.03914 21.7895 7.53043 22.0003 7 22.0003H4C3.46957 22.0003 2.96086 21.7895 2.58579 21.4145C2.21071 21.0394 2 20.5307 2 20.0003V17.0002C2 16.4698 2.21071 15.9611 2.58579 15.586C2.96086 15.211 3.46957 15.0002 4 15.0002H7C7.53043 15.0002 8.03914 15.211 8.41421 15.586C8.78929 15.9611 9 16.4698 9 17.0002V20.0003Z" fill="#374957"/>
<path d="M20 13.0002H17C15.9391 13.0002 14.9217 13.4217 14.1716 14.1718C13.4214 14.922 13 15.9394 13 17.0002V20.0003C13 21.0611 13.4214 22.0785 14.1716 22.8287C14.9217 23.5788 15.9391 24.0003 17 24.0003H20C21.0609 24.0003 22.0783 23.5788 22.8284 22.8287C23.5786 22.0785 24 21.0611 24 20.0003V17.0002C24 15.9394 23.5786 14.922 22.8284 14.1718C22.0783 13.4217 21.0609 13.0002 20 13.0002V13.0002ZM22 20.0003C22 20.5307 21.7893 21.0394 21.4142 21.4145C21.0391 21.7895 20.5304 22.0003 20 22.0003H17C16.4696 22.0003 15.9609 21.7895 15.5858 21.4145C15.2107 21.0394 15 20.5307 15 20.0003V17.0002C15 16.4698 15.2107 15.9611 15.5858 15.586C15.9609 15.211 16.4696 15.0002 17 15.0002H20C20.5304 15.0002 21.0391 15.211 21.4142 15.586C21.7893 15.9611 22 16.4698 22 17.0002V20.0003Z" fill="#374957"/>
</g>
<defs>
<clipPath id="clip0_224_9050">
<rect width="24" height="24" fill="white" transform="translate(0 0.000244141)"/>
</clipPath>
</defs>
</svg>
