<svg width="24" height="24" viewBox="0 0 24 24" fill="none" xmlns="http://www.w3.org/2000/svg">
<g clip-path="url(#clip0_224_7935)">
<path d="M18 6.00024C15.028 6.00024 13.057 8.22724 12 9.88224C10.943 8.22724 8.972 6.00024 6 6.00024C4.4087 6.00024 2.88258 6.63239 1.75736 7.7576C0.632141 8.88282 0 10.4089 0 12.0002C0 13.5915 0.632141 15.1177 1.75736 16.2429C2.88258 17.3681 4.4087 18.0002 6 18.0002C8.972 18.0002 10.943 15.7732 12 14.1182C13.057 15.7732 15.028 18.0002 18 18.0002C19.5913 18.0002 21.1174 17.3681 22.2426 16.2429C23.3679 15.1177 24 13.5915 24 12.0002C24 10.4089 23.3679 8.88282 22.2426 7.7576C21.1174 6.63239 19.5913 6.00024 18 6.00024ZM6 16.0002C4.93913 16.0002 3.92172 15.5788 3.17157 14.8287C2.42143 14.0785 2 13.0611 2 12.0002C2 10.9394 2.42143 9.92196 3.17157 9.17182C3.92172 8.42167 4.93913 8.00024 6 8.00024C8.693 8.00024 10.382 10.9452 10.9 12.0002C10.386 13.0602 8.708 16.0002 6 16.0002ZM18 16.0002C15.307 16.0002 13.618 13.0552 13.1 12.0002C13.615 10.9422 15.293 8.00024 18 8.00024C19.0609 8.00024 20.0783 8.42167 20.8284 9.17182C21.5786 9.92196 22 10.9394 22 12.0002C22 13.0611 21.5786 14.0785 20.8284 14.8287C20.0783 15.5788 19.0609 16.0002 18 16.0002Z" fill="#374957"/>
</g>
<defs>
<clipPath id="clip0_224_7935">
<rect width="24" height="24" fill="white" transform="translate(0 0.000244141)"/>
</clipPath>
</defs>
</svg>
