<svg width="24" height="24" viewBox="0 0 24 24" fill="none" xmlns="http://www.w3.org/2000/svg">
<g clip-path="url(#clip0_224_7981)">
<path d="M12 4.00024C13.1046 4.00024 14 3.10481 14 2.00024C14 0.895675 13.1046 0.000244141 12 0.000244141C10.8954 0.000244141 10 0.895675 10 2.00024C10 3.10481 10.8954 4.00024 12 4.00024Z" fill="#374957"/>
<path d="M12 14.0005C13.1046 14.0005 14 13.1051 14 12.0005C14 10.8959 13.1046 10.0005 12 10.0005C10.8954 10.0005 10 10.8959 10 12.0005C10 13.1051 10.8954 14.0005 12 14.0005Z" fill="#374957"/>
<path d="M12 24C13.1046 24 14 23.1046 14 22C14 20.8954 13.1046 20 12 20C10.8954 20 10 20.8954 10 22C10 23.1046 10.8954 24 12 24Z" fill="#374957"/>
</g>
<defs>
<clipPath id="clip0_224_7981">
<rect width="24" height="24" fill="white" transform="translate(0 0.000244141)"/>
</clipPath>
</defs>
</svg>
