<svg width="24" height="24" viewBox="0 0 24 24" fill="none" xmlns="http://www.w3.org/2000/svg">
<g clip-path="url(#clip0_224_9026)">
<path d="M19 8.42424V7.00024C19 5.14373 18.2625 3.36325 16.9497 2.0505C15.637 0.737742 13.8565 0.000244141 12 0.000244141C10.1435 0.000244141 8.36301 0.737742 7.05025 2.0505C5.7375 3.36325 5 5.14373 5 7.00024V8.42424C4.10936 8.81295 3.35129 9.45277 2.8185 10.2655C2.28571 11.0781 2.00128 12.0285 2 13.0002V19.0002C2.00159 20.3258 2.52888 21.5967 3.46622 22.534C4.40356 23.4714 5.67441 23.9987 7 24.0002H17C18.3256 23.9987 19.5964 23.4714 20.5338 22.534C21.4711 21.5967 21.9984 20.3258 22 19.0002V13.0002C21.9987 12.0285 21.7143 11.0781 21.1815 10.2655C20.6487 9.45277 19.8906 8.81295 19 8.42424ZM7 7.00024C7 5.67416 7.52678 4.40239 8.46447 3.46471C9.40215 2.52703 10.6739 2.00024 12 2.00024C13.3261 2.00024 14.5979 2.52703 15.5355 3.46471C16.4732 4.40239 17 5.67416 17 7.00024V8.00024H7V7.00024ZM20 19.0002C20 19.7959 19.6839 20.559 19.1213 21.1216C18.5587 21.6842 17.7956 22.0002 17 22.0002H7C6.20435 22.0002 5.44129 21.6842 4.87868 21.1216C4.31607 20.559 4 19.7959 4 19.0002V13.0002C4 12.2046 4.31607 11.4415 4.87868 10.8789C5.44129 10.3163 6.20435 10.0002 7 10.0002H17C17.7956 10.0002 18.5587 10.3163 19.1213 10.8789C19.6839 11.4415 20 12.2046 20 13.0002V19.0002Z" fill="#374957"/>
<path d="M12 13.9999C11.7348 13.9999 11.4804 14.1052 11.2929 14.2928C11.1054 14.4803 11 14.7347 11 14.9999V16.9999C11 17.2651 11.1054 17.5194 11.2929 17.707C11.4804 17.8945 11.7348 17.9999 12 17.9999C12.2652 17.9999 12.5196 17.8945 12.7071 17.707C12.8947 17.5194 13 17.2651 13 16.9999V14.9999C13 14.7347 12.8947 14.4803 12.7071 14.2928C12.5196 14.1052 12.2652 13.9999 12 13.9999Z" fill="#374957"/>
</g>
<defs>
<clipPath id="clip0_224_9026">
<rect width="24" height="24" fill="white" transform="translate(0 0.000244141)"/>
</clipPath>
</defs>
</svg>
