<svg width="24" height="24" viewBox="0 0 24 24" fill="none" xmlns="http://www.w3.org/2000/svg">
<g clip-path="url(#clip0_224_8131)">
<path d="M0.999787 24.0007C1.26498 24.0006 1.51929 23.8952 1.70679 23.7077L8.32579 17.0887L9.57379 18.3807C10.5144 19.3747 11.8108 19.9551 13.1788 19.9947C13.6348 19.9961 14.0877 19.9193 14.5178 19.7677C15.1823 19.5389 15.7662 19.1221 16.1984 18.5679C16.6306 18.0137 16.8927 17.3459 16.9528 16.6457C17.0613 15.6315 16.9861 14.6061 16.7308 13.6187L16.5168 12.5767C16.4762 12.4101 16.4792 12.2358 16.5255 12.0707C16.5717 11.9055 16.6596 11.755 16.7808 11.6337L18.3678 10.0457C18.4304 9.98284 18.5151 9.94695 18.6038 9.94568C18.6349 9.93989 18.667 9.9429 18.6965 9.95439C18.7261 9.96587 18.7518 9.98537 18.7708 10.0107C19.2731 10.5433 19.9488 10.8794 20.6767 10.9586C21.4045 11.0378 22.1367 10.8549 22.7418 10.4427C23.0968 10.1896 23.3924 9.8621 23.608 9.48309C23.8236 9.10407 23.954 8.68262 23.99 8.24808C24.0261 7.81354 23.967 7.37636 23.8169 6.96698C23.6668 6.55761 23.4292 6.18588 23.1208 5.87768L18.1998 0.95468C17.6945 0.436781 17.0232 0.112964 16.3034 0.0398456C15.5835 -0.0332731 14.8609 0.148959 14.2618 0.55468C13.9067 0.807713 13.611 1.13512 13.3953 1.51409C13.1796 1.89307 13.0492 2.3145 13.013 2.74904C12.9768 3.18359 13.0358 3.62079 13.1859 4.03021C13.3359 4.43963 13.5734 4.81141 13.8818 5.11968L13.9578 5.19568C14.0151 5.25338 14.0472 5.33138 14.0472 5.41268C14.0472 5.49398 14.0151 5.57198 13.9578 5.62968L12.3578 7.22968C12.235 7.35216 12.0826 7.44062 11.9153 7.48638C11.7481 7.53214 11.5718 7.53362 11.4038 7.49068L10.5868 7.28168C9.58184 7.01922 8.53777 6.94029 7.50479 7.04868C6.77215 7.12456 6.07647 7.40831 5.49976 7.86649C4.92305 8.32467 4.48935 8.93817 4.24979 9.63468C3.98835 10.3504 3.9368 11.126 4.1012 11.87C4.2656 12.6141 4.63912 13.2957 5.17779 13.8347L6.93579 15.6547L0.292787 22.2937C0.152977 22.4335 0.0577711 22.6117 0.0192035 22.8056C-0.0193641 22.9996 0.000438906 23.2006 0.0761089 23.3833C0.151779 23.566 0.279919 23.7222 0.444328 23.8321C0.608738 23.942 0.802037 24.0006 0.999787 24.0007ZM6.13479 10.3007C6.24747 9.96 6.4565 9.65929 6.73657 9.43495C7.01663 9.21061 7.35572 9.07228 7.71279 9.03668C7.94301 9.01272 8.17432 9.0007 8.40579 9.00068C8.9731 9.00071 9.53806 9.07364 10.0868 9.21768L10.9098 9.42768C11.414 9.55525 11.9427 9.54999 12.4443 9.41241C12.9458 9.27484 13.4032 9.00964 13.7718 8.64268L15.3718 7.04268C15.8035 6.60967 16.046 6.02315 16.046 5.41168C16.046 4.80021 15.8035 4.21369 15.3718 3.78068L15.2958 3.70468C15.1922 3.60138 15.1126 3.47663 15.0625 3.33922C15.0124 3.20181 14.9931 3.05508 15.0059 2.90938C15.0187 2.76368 15.0632 2.62256 15.1365 2.49597C15.2097 2.36937 15.3098 2.26038 15.4298 2.17668C15.6432 2.0475 15.8946 1.99587 16.1416 2.03048C16.3886 2.06509 16.6161 2.18383 16.7858 2.36668L21.7098 7.29068C21.8133 7.39398 21.893 7.51873 21.943 7.65614C21.9931 7.79355 22.0125 7.94028 21.9997 8.08598C21.9869 8.23168 21.9423 8.3728 21.8691 8.49939C21.7958 8.62599 21.6957 8.73498 21.5758 8.81868C21.3601 8.94962 21.1055 9.00128 20.8558 8.96478C20.6061 8.92828 20.377 8.80589 20.2078 8.61868C20.002 8.40653 19.7559 8.23777 19.4838 8.12235C19.2117 8.00693 18.9193 7.9472 18.6238 7.94668C18.0004 7.94952 17.4025 8.19483 16.9568 8.63068L15.3708 10.2177C15.0107 10.5781 14.7482 11.0242 14.6083 11.5141C14.4683 12.004 14.4554 12.5214 14.5708 13.0177L14.7898 14.0757C14.9916 14.8471 15.0529 15.6485 14.9708 16.4417C14.9469 16.7651 14.8285 17.0745 14.6302 17.3312C14.432 17.5879 14.1627 17.7807 13.8558 17.8857C13.3442 18.0202 12.805 18.007 12.3007 17.8477C11.7963 17.6885 11.3473 17.3896 11.0058 16.9857L6.60579 12.4357C6.33142 12.1621 6.14124 11.8155 6.05776 11.4371C5.97429 11.0587 6.00102 10.6643 6.13479 10.3007Z" fill="#374957"/>
</g>
<defs>
<clipPath id="clip0_224_8131">
<rect width="24" height="24" fill="white" transform="translate(0 0.000244141)"/>
</clipPath>
</defs>
</svg>
