<svg width="24" height="24" viewBox="0 0 24 24" fill="none" xmlns="http://www.w3.org/2000/svg">
<g clip-path="url(#clip0_224_7892)">
<path d="M9 11.9999C10.1867 11.9999 11.3467 11.648 12.3334 10.9887C13.3201 10.3294 14.0892 9.39234 14.5433 8.29598C14.9974 7.19963 15.1162 5.99323 14.8847 4.82934C14.6532 3.66545 14.0818 2.59635 13.2426 1.75724C12.4035 0.918125 11.3344 0.34668 10.1705 0.115169C9.00666 -0.116342 7.80026 0.00247765 6.7039 0.456603C5.60754 0.910729 4.67047 1.67976 4.01118 2.66646C3.35189 3.65315 3 4.81319 3 5.99988C3.00159 7.59069 3.63424 9.11589 4.75911 10.2408C5.88399 11.3656 7.40919 11.9983 9 11.9999ZM9 1.99988C9.79113 1.99988 10.5645 2.23448 11.2223 2.674C11.8801 3.11353 12.3928 3.73824 12.6955 4.46915C12.9983 5.20005 13.0775 6.00432 12.9231 6.78024C12.7688 7.55617 12.3878 8.2689 11.8284 8.82831C11.269 9.38772 10.5563 9.76868 9.78036 9.92302C9.00444 10.0774 8.20017 9.99815 7.46927 9.6954C6.73836 9.39265 6.11365 8.87996 5.67412 8.22216C5.2346 7.56436 5 6.79101 5 5.99988C5 4.93901 5.42143 3.9216 6.17157 3.17145C6.92172 2.42131 7.93913 1.99988 9 1.99988Z" fill="#374957"/>
<path d="M9 13.9996C6.61395 14.0025 4.32645 14.9517 2.63925 16.6389C0.952057 18.3261 0.00291096 20.6136 0 22.9996C0 23.2648 0.105357 23.5192 0.292893 23.7067C0.48043 23.8942 0.734784 23.9996 1 23.9996C1.26522 23.9996 1.51957 23.8942 1.70711 23.7067C1.89464 23.5192 2 23.2648 2 22.9996C2 21.1431 2.7375 19.3626 4.05025 18.0499C5.36301 16.7371 7.14348 15.9996 9 15.9996C10.8565 15.9996 12.637 16.7371 13.9497 18.0499C15.2625 19.3626 16 21.1431 16 22.9996C16 23.2648 16.1054 23.5192 16.2929 23.7067C16.4804 23.8942 16.7348 23.9996 17 23.9996C17.2652 23.9996 17.5196 23.8942 17.7071 23.7067C17.8946 23.5192 18 23.2648 18 22.9996C17.9971 20.6136 17.0479 18.3261 15.3607 16.6389C13.6735 14.9517 11.3861 14.0025 9 13.9996Z" fill="#374957"/>
<path d="M22.0002 7.875C21.4437 7.90272 20.9208 8.14977 20.546 8.56207C20.1712 8.97437 19.9749 9.51836 20.0002 10.075C20.0255 9.51836 19.8293 8.97437 19.4544 8.56207C19.0796 8.14977 18.5567 7.90272 18.0002 7.875C17.4437 7.90272 16.9208 8.14977 16.546 8.56207C16.1712 8.97437 15.9749 9.51836 16.0002 10.075C16.0002 11.805 18.2562 13.832 19.3802 14.734C19.5561 14.8749 19.7748 14.9516 20.0002 14.9516C20.2256 14.9516 20.4443 14.8749 20.6202 14.734C21.7442 13.834 24.0002 11.805 24.0002 10.075C24.0255 9.51836 23.8292 8.97437 23.4544 8.56207C23.0796 8.14977 22.5567 7.90272 22.0002 7.875Z" fill="#374957"/>
</g>
<defs>
<clipPath id="clip0_224_7892">
<rect width="24" height="24" fill="white"/>
</clipPath>
</defs>
</svg>
