<svg width="24" height="24" viewBox="0 0 24 24" fill="none" xmlns="http://www.w3.org/2000/svg">
<g clip-path="url(#clip0_224_8016)">
<path d="M19 0.000244141H5C3.67441 0.001832 2.40356 0.529126 1.46622 1.46646C0.528882 2.4038 0.00158786 3.67465 0 5.00024L0 19.0002C0.00158786 20.3258 0.528882 21.5967 1.46622 22.534C2.40356 23.4714 3.67441 23.9987 5 24.0002H19C20.3256 23.9987 21.5964 23.4714 22.5338 22.534C23.4711 21.5967 23.9984 20.3258 24 19.0002V5.00024C23.9984 3.67465 23.4711 2.4038 22.5338 1.46646C21.5964 0.529126 20.3256 0.001832 19 0.000244141V0.000244141ZM5 2.00024H19C19.7956 2.00024 20.5587 2.31631 21.1213 2.87892C21.6839 3.44153 22 4.20459 22 5.00024V19.0002C21.9983 19.4457 21.8957 19.885 21.7 20.2852L12.537 11.1222C12.0727 10.6578 11.5214 10.2894 10.9147 10.038C10.308 9.78668 9.65772 9.65731 9.001 9.65731C8.34428 9.65731 7.69399 9.78668 7.08728 10.038C6.48056 10.2894 5.92931 10.6578 5.465 11.1222L2 14.5862V5.00024C2 4.20459 2.31607 3.44153 2.87868 2.87892C3.44129 2.31631 4.20435 2.00024 5 2.00024ZM5 22.0002C4.20435 22.0002 3.44129 21.6842 2.87868 21.1216C2.31607 20.559 2 19.7959 2 19.0002V17.4142L6.878 12.5362C7.1566 12.2575 7.4874 12.0363 7.85151 11.8854C8.21561 11.7345 8.60587 11.6569 9 11.6569C9.39413 11.6569 9.78439 11.7345 10.1485 11.8854C10.5126 12.0363 10.8434 12.2575 11.122 12.5362L20.285 21.7002C19.8848 21.896 19.4455 21.9985 19 22.0002H5Z" fill="#374957"/>
<path d="M16 10.4999C16.6922 10.4999 17.3689 10.2946 17.9445 9.91002C18.5201 9.52544 18.9687 8.97881 19.2336 8.33927C19.4985 7.69973 19.5678 6.996 19.4327 6.31706C19.2977 5.63813 18.9644 5.01449 18.4749 4.52501C17.9854 4.03552 17.3617 3.70218 16.6828 3.56713C16.0039 3.43208 15.3001 3.50139 14.6606 3.7663C14.0211 4.03121 13.4744 4.47981 13.0899 5.05538C12.7053 5.63096 12.5 6.30765 12.5 6.99988C12.5 7.92814 12.8687 8.81838 13.5251 9.47475C14.1815 10.1311 15.0717 10.4999 16 10.4999ZM16 5.49988C16.2967 5.49988 16.5867 5.58785 16.8334 5.75268C17.08 5.9175 17.2723 6.15177 17.3858 6.42585C17.4994 6.69994 17.5291 7.00154 17.4712 7.29252C17.4133 7.58349 17.2704 7.85076 17.0607 8.06054C16.8509 8.27032 16.5836 8.41318 16.2926 8.47106C16.0017 8.52894 15.7001 8.49923 15.426 8.3857C15.1519 8.27217 14.9176 8.07991 14.7528 7.83324C14.588 7.58656 14.5 7.29655 14.5 6.99988C14.5 6.60206 14.658 6.22052 14.9393 5.93922C15.2206 5.65791 15.6022 5.49988 16 5.49988Z" fill="#374957"/>
</g>
<defs>
<clipPath id="clip0_224_8016">
<rect width="24" height="24" fill="white" transform="translate(0 0.000244141)"/>
</clipPath>
</defs>
</svg>
