<svg width="24" height="24" viewBox="0 0 24 24" fill="none" xmlns="http://www.w3.org/2000/svg">
<g clip-path="url(#clip0_224_7868)">
<path d="M23.2706 9.41891C21.7196 6.89291 18.1916 2.65491 11.9996 2.65491C5.80756 2.65491 2.27956 6.89291 0.728563 9.41891C0.249091 10.1944 -0.00488281 11.0881 -0.00488281 11.9999C-0.00488281 12.9117 0.249091 13.8054 0.728563 14.5809C2.27956 17.1069 5.80756 21.3449 11.9996 21.3449C18.1916 21.3449 21.7196 17.1069 23.2706 14.5809C23.75 13.8054 24.004 12.9117 24.004 11.9999C24.004 11.0881 23.75 10.1944 23.2706 9.41891ZM21.5656 13.5339C20.2336 15.6999 17.2186 19.3449 11.9996 19.3449C6.78056 19.3449 3.76556 15.6999 2.43356 13.5339C2.1487 13.073 1.99781 12.5418 1.99781 11.9999C1.99781 11.458 2.1487 10.9269 2.43356 10.4659C3.76556 8.29991 6.78056 4.65491 11.9996 4.65491C17.2186 4.65491 20.2336 8.29591 21.5656 10.4659C21.8504 10.9269 22.0013 11.458 22.0013 11.9999C22.0013 12.5418 21.8504 13.073 21.5656 13.5339Z" fill="#374957"/>
<path d="M12 6.99988C11.0111 6.99988 10.0444 7.29312 9.22215 7.84253C8.39991 8.39194 7.75904 9.17283 7.3806 10.0865C7.00217 11.0001 6.90315 12.0054 7.09608 12.9753C7.289 13.9452 7.76521 14.8362 8.46447 15.5354C9.16373 16.2347 10.0546 16.7109 11.0246 16.9038C11.9945 17.0967 12.9998 16.9977 13.9134 16.6193C14.827 16.2408 15.6079 15.6 16.1574 14.7777C16.7068 13.9555 17 12.9888 17 11.9999C16.9984 10.6743 16.4711 9.40344 15.5338 8.4661C14.5964 7.52876 13.3256 7.00147 12 6.99988ZM12 14.9999C11.4067 14.9999 10.8266 14.8239 10.3333 14.4943C9.83994 14.1646 9.45543 13.6961 9.22836 13.1479C9.0013 12.5998 8.94189 11.9966 9.05765 11.4146C9.1734 10.8327 9.45912 10.2981 9.87868 9.87856C10.2982 9.459 10.8328 9.17328 11.4147 9.05752C11.9967 8.94177 12.5999 9.00118 13.1481 9.22824C13.6962 9.4553 14.1648 9.83982 14.4944 10.3332C14.8241 10.8265 15 11.4065 15 11.9999C15 12.7955 14.6839 13.5586 14.1213 14.1212C13.5587 14.6838 12.7957 14.9999 12 14.9999Z" fill="#374957"/>
<g clip-path="url(#clip1_224_7868)">
<path d="M19 23.9999H17C16.7348 23.9999 16.4804 23.8945 16.2929 23.707C16.1054 23.5194 16 23.2651 16 22.9999C16 22.7346 16.1054 22.4803 16.2929 22.2928C16.4804 22.1052 16.7348 21.9999 17 21.9999H19C19.7956 21.9999 20.5587 21.6838 21.1213 21.1212C21.6839 20.5586 22 19.7955 22 18.9999V16.9999C22 16.7347 22.1053 16.4803 22.2929 16.2928C22.4804 16.1052 22.7348 15.9999 23 15.9999C23.2652 15.9999 23.5196 16.1052 23.7071 16.2928C23.8946 16.4803 24 16.7347 24 16.9999V18.9999C23.9984 20.3255 23.4711 21.5963 22.5338 22.5336C21.5964 23.471 20.3256 23.9983 19 23.9999Z" fill="#374957"/>
<path d="M1 8C0.734784 8 0.48043 7.89464 0.292893 7.70711C0.105357 7.51957 0 7.26522 0 7V5C0.00158786 3.67441 0.528882 2.40356 1.46622 1.46622C2.40356 0.528882 3.67441 0.00158786 5 0L7 0C7.26522 0 7.51957 0.105357 7.70711 0.292893C7.89464 0.48043 8 0.734784 8 1C8 1.26522 7.89464 1.51957 7.70711 1.70711C7.51957 1.89464 7.26522 2 7 2H5C4.20435 2 3.44129 2.31607 2.87868 2.87868C2.31607 3.44129 2 4.20435 2 5V7C2 7.26522 1.89464 7.51957 1.70711 7.70711C1.51957 7.89464 1.26522 8 1 8Z" fill="#374957"/>
<path d="M7 23.9999H5C3.67441 23.9983 2.40356 23.471 1.46622 22.5336C0.528882 21.5963 0.00158786 20.3255 0 18.9999L0 16.9999C0 16.7347 0.105357 16.4803 0.292893 16.2928C0.48043 16.1052 0.734784 15.9999 1 15.9999C1.26522 15.9999 1.51957 16.1052 1.70711 16.2928C1.89464 16.4803 2 16.7347 2 16.9999V18.9999C2 19.7955 2.31607 20.5586 2.87868 21.1212C3.44129 21.6838 4.20435 21.9999 5 21.9999H7C7.26522 21.9999 7.51957 22.1052 7.70711 22.2928C7.89464 22.4803 8 22.7346 8 22.9999C8 23.2651 7.89464 23.5194 7.70711 23.707C7.51957 23.8945 7.26522 23.9999 7 23.9999Z" fill="#374957"/>
<path d="M23 8C22.7348 8 22.4804 7.89464 22.2929 7.70711C22.1053 7.51957 22 7.26522 22 7V5C22 4.20435 21.6839 3.44129 21.1213 2.87868C20.5587 2.31607 19.7956 2 19 2H17C16.7348 2 16.4804 1.89464 16.2929 1.70711C16.1054 1.51957 16 1.26522 16 1C16 0.734784 16.1054 0.48043 16.2929 0.292893C16.4804 0.105357 16.7348 0 17 0L19 0C20.3256 0.00158786 21.5964 0.528882 22.5338 1.46622C23.4711 2.40356 23.9984 3.67441 24 5V7C24 7.26522 23.8946 7.51957 23.7071 7.70711C23.5196 7.89464 23.2652 8 23 8Z" fill="#374957"/>
</g>
</g>
<defs>
<clipPath id="clip0_224_7868">
<rect width="24" height="24" fill="white"/>
</clipPath>
<clipPath id="clip1_224_7868">
<rect width="24" height="24" fill="white"/>
</clipPath>
</defs>
</svg>
