<svg width="24" height="24" viewBox="0 0 24 24" fill="none" xmlns="http://www.w3.org/2000/svg">
<g clip-path="url(#clip0_224_8005)">
<path d="M23.1193 0.882258C22.7607 0.519386 22.3147 0.255113 21.8242 0.114975C21.3337 -0.0251644 20.8154 -0.0364327 20.3193 0.0822581L4.31925 3.45226C3.39783 3.57862 2.52999 3.95974 1.81346 4.55267C1.09693 5.14561 0.560167 5.92682 0.263629 6.80832C-0.0329088 7.68983 -0.0774484 8.63662 0.135026 9.54207C0.347501 10.4475 0.808551 11.2757 1.46625 11.9333L3.18425 13.6503C3.27724 13.7432 3.35098 13.8536 3.40126 13.9751C3.45153 14.0966 3.47736 14.2268 3.47725 14.3583V17.5263C3.47946 17.9717 3.582 18.4109 3.77725 18.8113L3.76925 18.8183L3.79525 18.8443C4.08827 19.4334 4.56684 19.9098 5.15725 20.2003L5.18325 20.2263L5.19025 20.2183C5.59062 20.4135 6.02982 20.5161 6.47525 20.5183H9.64325C9.90831 20.518 10.1626 20.6231 10.3503 20.8103L12.0673 22.5273C12.5278 22.9929 13.0759 23.3628 13.68 23.6156C14.2842 23.8684 14.9324 23.9991 15.5873 24.0003C16.133 23.9996 16.675 23.9104 17.1923 23.7363C18.0657 23.4495 18.8416 22.9243 19.4325 22.22C20.0234 21.5157 20.4057 20.6603 20.5363 19.7503L23.9113 3.71526C24.0361 3.2149 24.0287 2.69068 23.8899 2.19402C23.7511 1.69736 23.4855 1.24533 23.1193 0.882258ZM4.60025 12.2383L2.88125 10.5213C2.48097 10.1306 2.20043 9.6339 2.07254 9.08941C1.94465 8.54492 1.97474 7.97525 2.15925 7.44726C2.33815 6.90558 2.66886 6.42668 3.11205 6.06752C3.55524 5.70836 4.09227 5.48405 4.65925 5.42126L20.5003 2.08626L5.47525 17.1133V14.3583C5.47677 13.9646 5.40022 13.5745 5.25003 13.2106C5.09983 12.8468 4.87899 12.5163 4.60025 12.2383ZM18.5713 19.4083C18.4945 19.9606 18.2653 20.4806 17.9094 20.9099C17.5534 21.3392 17.0849 21.6608 16.5564 21.8386C16.0278 22.0164 15.4602 22.0434 14.9172 21.9165C14.3742 21.7896 13.8773 21.5139 13.4823 21.1203L11.7623 19.4003C11.4846 19.1211 11.1544 18.8998 10.7907 18.7491C10.427 18.5984 10.037 18.5213 9.64325 18.5223H6.88825L21.9153 3.50026L18.5713 19.4083Z" fill="#374957"/>
</g>
<defs>
<clipPath id="clip0_224_8005">
<rect width="24" height="24" fill="white" transform="translate(0 0.000244141)"/>
</clipPath>
</defs>
</svg>
