<svg width="24" height="24" viewBox="0 0 24 24" fill="none" xmlns="http://www.w3.org/2000/svg">
<g clip-path="url(#clip0_224_9027)">
<path d="M18.581 2.14097L12.316 0.0519732C12.1109 -0.0163478 11.8891 -0.0163478 11.684 0.0519732L5.419 2.14097C4.42291 2.47185 3.55642 3.10823 2.94265 3.95968C2.32887 4.81114 1.99904 5.83436 2 6.88397V12.001C2 19.564 11.2 23.741 11.594 23.915C11.7218 23.9718 11.8601 24.0011 12 24.0011C12.1399 24.0011 12.2782 23.9718 12.406 23.915C12.8 23.741 22 19.564 22 12.001V6.88397C22.001 5.83436 21.6711 4.81114 21.0574 3.95968C20.4436 3.10823 19.5771 2.47185 18.581 2.14097ZM20 12.001C20 17.456 13.681 21.034 12 21.89C10.317 21.037 4 17.47 4 12.001V6.88397C4.00006 6.25425 4.19828 5.64051 4.56657 5.12972C4.93486 4.61892 5.45455 4.23697 6.052 4.03797L12 2.05497L17.948 4.03797C18.5455 4.23697 19.0651 4.61892 19.4334 5.12972C19.8017 5.64051 19.9999 6.25425 20 6.88397V12.001Z" fill="#374957"/>
<path d="M15.2998 8.30056L11.1118 12.5006L8.86779 10.1606C8.77774 10.0621 8.66889 9.98266 8.54765 9.92691C8.42642 9.87117 8.29526 9.84025 8.16189 9.83598C8.02852 9.83171 7.89565 9.85417 7.7711 9.90205C7.64655 9.94992 7.53284 10.0222 7.43666 10.1147C7.34049 10.2072 7.26381 10.3181 7.21112 10.4406C7.15844 10.5632 7.13083 10.6951 7.12991 10.8286C7.12899 10.962 7.15478 11.0943 7.20577 11.2176C7.25676 11.3409 7.33191 11.4528 7.42679 11.5466L9.73279 13.9466C9.90477 14.1323 10.1126 14.2813 10.3438 14.3844C10.575 14.4875 10.8247 14.5427 11.0778 14.5466H11.1108C11.3588 14.5474 11.6046 14.4989 11.8338 14.404C12.0629 14.3091 12.271 14.1696 12.4458 13.9936L16.7178 9.72157C16.8111 9.62846 16.8851 9.51789 16.9357 9.39616C16.9863 9.27443 17.0124 9.14394 17.0125 9.01213C17.0127 8.88031 16.9868 8.74976 16.9365 8.62793C16.8862 8.5061 16.8124 8.39537 16.7193 8.30206C16.6262 8.20876 16.5156 8.13471 16.3939 8.08414C16.2722 8.03356 16.1417 8.00746 16.0099 8.00732C15.878 8.00719 15.7475 8.03301 15.6257 8.08332C15.5038 8.13364 15.3931 8.20746 15.2998 8.30056Z" fill="#374957"/>
</g>
<defs>
<clipPath id="clip0_224_9027">
<rect width="24" height="24" fill="white" transform="translate(0 0.000244141)"/>
</clipPath>
</defs>
</svg>
