<svg width="17" height="16" viewBox="0 0 17 16" fill="none" xmlns="http://www.w3.org/2000/svg">
<g clip-path="url(#clip0_224_9018)">
<path d="M4.26779 12.0255C4.33012 12.0463 4.38774 12.0792 4.43737 12.1223C4.48699 12.1653 4.52764 12.2177 4.55699 12.2765C4.58633 12.3353 4.60381 12.3993 4.6084 12.4649C4.613 12.5304 4.60464 12.5962 4.58379 12.6585L4.08379 14.1585C4.06495 14.2231 4.03329 14.2832 3.99068 14.3352C3.94808 14.3873 3.89542 14.4302 3.83584 14.4614C3.77626 14.4926 3.711 14.5115 3.64396 14.5169C3.57692 14.5223 3.50948 14.5141 3.44567 14.4929C3.38187 14.4716 3.32301 14.4377 3.27262 14.3931C3.22223 14.3486 3.18134 14.2943 3.15241 14.2336C3.12348 14.1729 3.10709 14.107 3.10424 14.0398C3.10138 13.9726 3.11211 13.9055 3.13579 13.8425L3.63579 12.3425C3.67757 12.2167 3.76762 12.1126 3.88614 12.0532C4.00466 11.9937 4.14194 11.9838 4.26779 12.0255ZM7.26779 12.0255C7.33012 12.0463 7.38774 12.0792 7.43737 12.1223C7.48699 12.1653 7.52764 12.2177 7.55699 12.2765C7.58633 12.3353 7.60381 12.3993 7.6084 12.4649C7.613 12.5304 7.60464 12.5962 7.58379 12.6585L6.58379 15.6585C6.56495 15.7231 6.53329 15.7832 6.49068 15.8352C6.44808 15.8873 6.39542 15.9302 6.33584 15.9614C6.27626 15.9926 6.211 16.0115 6.14396 16.0169C6.07692 16.0223 6.00948 16.0141 5.94567 15.9929C5.88187 15.9716 5.82301 15.9377 5.77262 15.8931C5.72223 15.8486 5.68134 15.7943 5.65241 15.7336C5.62348 15.6729 5.60709 15.607 5.60424 15.5398C5.60138 15.4726 5.61211 15.4055 5.63579 15.3425L6.63579 12.3425C6.67757 12.2167 6.76762 12.1126 6.88614 12.0532C7.00466 11.9937 7.14194 11.9838 7.26779 12.0255ZM10.2678 12.0255C10.3301 12.0463 10.3877 12.0792 10.4374 12.1223C10.487 12.1653 10.5276 12.2177 10.557 12.2765C10.5863 12.3353 10.6038 12.3993 10.6084 12.4649C10.613 12.5304 10.6046 12.5962 10.5838 12.6585L10.0838 14.1585C10.065 14.2231 10.0333 14.2832 9.99068 14.3352C9.94808 14.3873 9.89542 14.4302 9.83584 14.4614C9.77626 14.4926 9.711 14.5115 9.64396 14.5169C9.57692 14.5223 9.50948 14.5141 9.44567 14.4929C9.38187 14.4716 9.32301 14.4377 9.27262 14.3931C9.22223 14.3486 9.18134 14.2943 9.15241 14.2336C9.12348 14.1729 9.10709 14.107 9.10424 14.0398C9.10138 13.9726 9.11211 13.9055 9.13579 13.8425L9.63579 12.3425C9.67757 12.2167 9.76762 12.1126 9.88614 12.0532C10.0047 11.9937 10.1419 11.9838 10.2678 12.0255ZM13.2678 12.0255C13.3301 12.0463 13.3877 12.0792 13.4374 12.1223C13.487 12.1653 13.5276 12.2177 13.557 12.2765C13.5863 12.3353 13.6038 12.3993 13.6084 12.4649C13.613 12.5304 13.6046 12.5962 13.5838 12.6585L12.5838 15.6585C12.565 15.7231 12.5333 15.7832 12.4907 15.8352C12.4481 15.8873 12.3954 15.9302 12.3358 15.9614C12.2763 15.9926 12.211 16.0115 12.144 16.0169C12.0769 16.0223 12.0095 16.0141 11.9457 15.9929C11.8819 15.9716 11.823 15.9377 11.7726 15.8931C11.7222 15.8486 11.6813 15.7943 11.6524 15.7336C11.6235 15.6729 11.6071 15.607 11.6042 15.5398C11.6014 15.4726 11.6121 15.4055 11.6358 15.3425L12.6358 12.3425C12.6776 12.2167 12.7676 12.1126 12.8861 12.0532C13.0047 11.9937 13.1419 11.9838 13.2678 12.0255ZM13.5148 5.02753C13.3071 3.98069 12.77 3.02774 11.982 2.30801C11.194 1.58828 10.1964 1.13952 9.13503 1.02734C8.0737 0.915165 7.00432 1.14546 6.08325 1.68454C5.16217 2.22363 4.43771 3.04324 4.01579 4.02353C3.54262 3.96902 3.06331 4.01166 2.6072 4.14884C2.15109 4.28602 1.72778 4.51484 1.36318 4.82131C0.998585 5.12778 0.700373 5.50543 0.486807 5.93116C0.273241 6.35689 0.148815 6.82172 0.121145 7.29721C0.0934763 7.7727 0.163147 8.24883 0.325891 8.69646C0.488636 9.14408 0.74103 9.55378 1.06762 9.90047C1.39421 10.2472 1.78813 10.5235 2.22525 10.7127C2.66237 10.9018 3.13349 10.9998 3.60979 11.0005H13.1098C13.8709 11.0014 14.6039 10.7129 15.1603 10.1936C15.7167 9.67426 16.0549 8.96285 16.1063 8.20348C16.1578 7.44412 15.9188 6.69357 15.4376 6.10387C14.9564 5.51417 14.269 5.12941 13.5148 5.02753Z" fill="#F3F3F3"/>
</g>
<defs>
<clipPath id="clip0_224_9018">
<rect width="16" height="16" fill="white" transform="translate(0.109375 0.000488281)"/>
</clipPath>
</defs>
</svg>
