<svg width="16" height="16" viewBox="0 0 16 16" fill="none" xmlns="http://www.w3.org/2000/svg">
<path d="M11.4753 10.5004C11.3628 9.48653 10.9091 8.54098 10.1887 7.81876C9.46833 7.09654 8.52393 6.64051 7.51036 6.52544C6.49678 6.41036 5.47419 6.64307 4.61022 7.18542C3.74626 7.72777 3.09219 8.54756 2.75527 9.51039C1.98321 9.57359 1.26552 9.93298 0.752432 10.5133C0.239344 11.0937 -0.0293659 11.85 0.00254968 12.624C0.0344652 13.398 0.364532 14.1296 0.923659 14.6658C1.48279 15.2019 2.22763 15.501 3.00227 15.5004H11.5023C12.1653 15.5004 12.8012 15.237 13.27 14.7682C13.7389 14.2993 14.0023 13.6634 14.0023 13.0004C14.0023 12.3374 13.7389 11.7015 13.27 11.2326C12.8012 10.7638 12.1653 10.5004 11.5023 10.5004H11.4753Z" fill="#F3F3F3"/>
<path d="M11.2887 1.27841C11.3462 1.1924 11.3756 1.09068 11.3728 0.987275C11.3701 0.883866 11.3353 0.783858 11.2733 0.701035C11.2113 0.618212 11.1252 0.556652 11.0268 0.52484C10.9283 0.493028 10.8224 0.49253 10.7237 0.523414C9.68831 0.847671 8.80105 1.52785 8.21903 2.44353C7.63701 3.3592 7.39779 4.45128 7.54371 5.52641C7.90136 5.56145 8.25472 5.63145 8.59871 5.73541C8.44394 5.07732 8.47759 4.38895 8.69583 3.7491C8.91406 3.10924 9.30806 2.54377 9.83271 2.11741C9.65952 2.78524 9.639 3.48349 9.77267 4.16033C9.90634 4.83717 10.1908 5.47521 10.6048 6.02704C11.0189 6.57888 11.552 7.03035 12.1645 7.34792C12.7769 7.66549 13.4531 7.841 14.1427 7.86141C13.4873 8.31661 12.6985 8.53976 11.9017 8.49541C12.0644 8.81341 12.1957 9.14675 12.2957 9.49541C13.0177 9.46467 13.7223 9.26388 14.352 8.90939C14.9817 8.5549 15.5189 8.05673 15.9197 7.45541C15.9772 7.3694 16.0066 7.26768 16.0038 7.16428C16.0011 7.06087 15.9663 6.96086 15.9043 6.87804C15.8423 6.79521 15.7562 6.73365 15.6578 6.70184C15.5593 6.67003 15.4534 6.66953 15.3547 6.70041C14.6454 6.92305 13.8845 6.92019 13.1769 6.69223C12.4693 6.46426 11.8499 6.02242 11.4039 5.42761C10.958 4.8328 10.7075 4.11431 10.687 3.37117C10.6666 2.62804 10.8762 1.89685 11.2887 1.27841Z" fill="#F3F3F3"/>
</svg>
