<svg width="17" height="16" viewBox="0 0 17 16" fill="none" xmlns="http://www.w3.org/2000/svg">
<path d="M11.5846 10.5005C11.4721 9.48666 11.0185 8.5411 10.2981 7.81888C9.57771 7.09666 8.6333 6.64063 7.61973 6.52556C6.60616 6.41048 5.58356 6.6432 4.7196 7.18554C3.85563 7.72789 3.20157 8.54768 2.86464 9.51052C2.09258 9.57371 1.37489 9.9331 0.861807 10.5135C0.348719 11.0938 0.0800091 11.8501 0.111925 12.6241C0.14384 13.3981 0.473907 14.1297 1.03303 14.6659C1.59216 15.202 2.337 15.5011 3.11164 15.5005H11.6116C12.2747 15.5005 12.9106 15.2371 13.3794 14.7683C13.8483 14.2994 14.1116 13.6636 14.1116 13.0005C14.1116 12.3375 13.8483 11.7016 13.3794 11.2327C12.9106 10.7639 12.2747 10.5005 11.6116 10.5005H11.5846Z" fill="#F3F3F3"/>
<path d="M10.6119 1.00049C10.6119 0.86788 10.5592 0.740703 10.4654 0.646935C10.3717 0.553167 10.2445 0.500488 10.1119 0.500488C9.97926 0.500488 9.85209 0.553167 9.75832 0.646935C9.66455 0.740703 9.61187 0.86788 9.61187 1.00049V2.00049C9.61187 2.1331 9.66455 2.26027 9.75832 2.35404C9.85209 2.44781 9.97926 2.50049 10.1119 2.50049C10.2445 2.50049 10.3717 2.44781 10.4654 2.35404C10.5592 2.26027 10.6119 2.1331 10.6119 2.00049V1.00049ZM14.3549 2.96449C14.4026 2.91836 14.4407 2.86319 14.4669 2.80219C14.4931 2.74119 14.5069 2.67558 14.5075 2.60919C14.5081 2.5428 14.4954 2.47696 14.4703 2.41551C14.4451 2.35406 14.408 2.29824 14.3611 2.25129C14.3141 2.20434 14.2583 2.16722 14.1968 2.14208C14.1354 2.11694 14.0696 2.10429 14.0032 2.10486C13.9368 2.10544 13.8712 2.11923 13.8102 2.14544C13.7492 2.17164 13.694 2.20973 13.6479 2.25749L12.9399 2.96449C12.846 3.05837 12.7932 3.18571 12.7932 3.31849C12.7932 3.45126 12.846 3.5786 12.9399 3.67249C13.0338 3.76637 13.1611 3.81912 13.2939 3.81912C13.4266 3.81912 13.554 3.76637 13.6479 3.67249L14.3549 2.96449ZM6.57587 2.25749C6.48157 2.16641 6.35527 2.11601 6.22417 2.11715C6.09307 2.11829 5.96767 2.17087 5.87496 2.26358C5.78226 2.35628 5.72967 2.48169 5.72853 2.61279C5.7274 2.74389 5.77779 2.87019 5.86887 2.96449L6.57587 3.67249C6.62236 3.71898 6.67755 3.75585 6.73829 3.78101C6.79903 3.80617 6.86413 3.81912 6.92987 3.81912C6.99562 3.81912 7.06072 3.80617 7.12146 3.78101C7.18219 3.75585 7.23738 3.71898 7.28387 3.67249C7.33036 3.626 7.36724 3.57081 7.39239 3.51007C7.41755 3.44933 7.4305 3.38423 7.4305 3.31849C7.4305 3.25274 7.41755 3.18764 7.39239 3.1269C7.36724 3.06617 7.33036 3.01098 7.28387 2.96449L6.57587 2.25749ZM8.30987 5.63149C8.43416 5.37393 8.61223 5.14602 8.83209 4.96313C9.05195 4.78024 9.30847 4.64663 9.58435 4.5713C9.86023 4.49598 10.1491 4.4807 10.4313 4.52649C10.7136 4.57228 10.9828 4.67807 11.2208 4.83674C11.4587 4.99541 11.6598 5.20325 11.8106 5.44626C11.9614 5.68927 12.0583 5.96178 12.0948 6.24542C12.1313 6.52906 12.1065 6.81723 12.0222 7.0905C11.9378 7.36376 11.7959 7.61575 11.6059 7.82949C11.8059 8.11149 11.9779 8.41082 12.1219 8.72749C12.4608 8.42129 12.7253 8.04175 12.8952 7.61781C13.0652 7.19387 13.1361 6.73672 13.1025 6.28122C13.069 5.82572 12.9319 5.38388 12.7017 4.98941C12.4715 4.59493 12.1542 4.25823 11.7741 4.00497C11.3941 3.75171 10.9612 3.58857 10.5085 3.52801C10.0558 3.46744 9.5952 3.51104 9.16191 3.65548C8.72861 3.79992 8.33401 4.04139 8.0082 4.36148C7.68239 4.68157 7.43397 5.07182 7.28187 5.50249C7.63454 5.51382 7.9772 5.55682 8.30987 5.63149ZM12.7939 9.70549C13.3939 9.92049 13.9189 10.2955 14.3159 10.7775C14.3703 10.7334 14.4149 10.6784 14.4467 10.6159C14.4785 10.5535 14.4968 10.4851 14.5005 10.4152C14.5042 10.3452 14.4931 10.2753 14.468 10.2099C14.4429 10.1444 14.4044 10.085 14.3549 10.0355L13.6479 9.32849C13.5766 9.25678 13.4852 9.20837 13.3859 9.18964C13.2865 9.17092 13.1838 9.18275 13.0913 9.22358C12.9989 9.26441 12.9209 9.33232 12.8678 9.41836C12.8147 9.50439 12.7889 9.6045 12.7939 9.70549ZM14.6119 6.00049C14.4793 6.00049 14.3521 6.05317 14.2583 6.14693C14.1645 6.2407 14.1119 6.36788 14.1119 6.50049C14.1119 6.6331 14.1645 6.76027 14.2583 6.85404C14.3521 6.94781 14.4793 7.00049 14.6119 7.00049H15.6119C15.7445 7.00049 15.8717 6.94781 15.9654 6.85404C16.0592 6.76027 16.1119 6.6331 16.1119 6.50049C16.1119 6.36788 16.0592 6.2407 15.9654 6.14693C15.8717 6.05317 15.7445 6.00049 15.6119 6.00049H14.6119Z" fill="#EED16D"/>
</svg>
