<svg width="16" height="16" viewBox="0 0 16 16" fill="none" xmlns="http://www.w3.org/2000/svg">
<g clip-path="url(#clip0_224_9016)">
<path d="M8.10938 2.50049V0.500488H7.10938V2.50049H8.10938ZM3.31638 2.99849L1.60938 1.29249L0.902375 2.00049L2.60938 3.70649L3.31638 2.99849ZM12.6094 3.70649L14.3164 2.00049L13.6094 1.29249L11.9024 2.99849L12.6094 3.70649ZM7.60938 4.49749C7.14297 4.48634 6.67905 4.56857 6.2449 4.73934C5.81074 4.91012 5.41512 5.166 5.08131 5.49192C4.7475 5.81785 4.48224 6.20723 4.30113 6.63718C4.12003 7.06713 4.02673 7.52895 4.02673 7.99549C4.02673 8.46202 4.12003 8.92385 4.30113 9.3538C4.48224 9.78374 4.7475 10.1731 5.08131 10.4991C5.41512 10.825 5.81074 11.0809 6.2449 11.2516C6.67905 11.4224 7.14297 11.5046 7.60938 11.4935C8.07578 11.5046 8.5397 11.4224 8.97385 11.2516C9.40801 11.0809 9.80363 10.825 10.1374 10.4991C10.4712 10.1731 10.7365 9.78374 10.9176 9.3538C11.0987 8.92385 11.192 8.46202 11.192 7.99549C11.192 7.52895 11.0987 7.06713 10.9176 6.63718C10.7365 6.20723 10.4712 5.81785 10.1374 5.49192C9.80363 5.166 9.40801 4.91012 8.97385 4.73934C8.5397 4.56857 8.07578 4.48634 7.60938 4.49749ZM2.10938 7.49549H0.109375V8.49549H2.10938V7.49549ZM15.1094 7.49549H13.1094V8.49549H15.1094V7.49549ZM1.60938 14.6995L3.31638 12.9925L2.60938 12.2855L0.902375 13.9915L1.60938 14.6995ZM14.3164 13.9915L12.6094 12.2855L11.9024 12.9925L13.6094 14.7005L14.3164 13.9915ZM8.10938 15.4905V13.4925H7.10938V15.4915L8.10938 15.4905Z" fill="#EED16D"/>
</g>
<defs>
<clipPath id="clip0_224_9016">
<rect width="15" height="15" fill="white" transform="translate(0.109375 0.500488)"/>
</clipPath>
</defs>
</svg>
