<svg width="16" height="16" viewBox="0 0 16 16" fill="none" xmlns="http://www.w3.org/2000/svg">
<path d="M3.07448 9.98075H11.3582C13.4742 9.98075 15.1096 8.38532 15.1096 6.32932C15.1096 4.25361 13.4008 2.69818 11.1379 2.71818C10.2836 0.996179 8.71505 0.00817871 6.86591 0.00817871C4.40305 0.00817871 2.32676 1.94389 2.13333 4.43389C0.838477 4.78761 0.00390625 5.88218 0.00390625 7.19046C0.00390625 8.84589 1.24562 9.98075 3.07448 9.98075ZM9.16219 12.5573H7.78676L8.44762 11.2887C8.52762 11.1487 8.46762 11.0353 8.32076 11.0353H6.87248C6.67905 11.0353 6.61248 11.1019 6.55219 11.2422L5.64448 13.3116C5.57105 13.4785 5.64448 13.5785 5.81791 13.5785H6.97933L6.06505 15.7879C6.03162 15.8813 6.04505 15.9548 6.11162 15.9816C6.17162 16.0082 6.24505 15.9882 6.31848 15.9147L9.26905 12.891C9.40905 12.7442 9.35562 12.5573 9.16219 12.5573Z" fill="#F3F3F3"/>
</svg>
